<?xml version="1.0" encoding="utf-8"?>
<!-- Generator: Adobe Illustrator 16.0.0, SVG Export Plug-In . SVG Version: 6.00 Build 0)  -->
<!DOCTYPE svg PUBLIC "-//W3C//DTD SVG 1.1//EN" "http://www.w3.org/Graphics/SVG/1.1/DTD/svg11.dtd">
<svg version="1.1" id="Layer_1" xmlns="http://www.w3.org/2000/svg" xmlns:xlink="http://www.w3.org/1999/xlink" x="0px" y="0px"
	 width="400px" height="355px" viewBox="0 0 400 355" enable-background="new 0 0 400 355" xml:space="preserve">
<path fill-rule="evenodd" clip-rule="evenodd" fill="#FFFFFF" d="M77.138,193.271c-2.4-2.51-4.275-4.489-6.17-6.445
	c-6.323-6.526-12.955-12.781-18.931-19.612c-22.699-25.944-26.48-61.719-9.829-90.379c23.21-39.95,76.216-49.384,112.788-19.462
	c12.343,10.099,23.289,21.906,34.853,32.955c7.921,7.569,13.549,7.718,21.483,0.137c8.429-8.051,16.559-16.415,25.021-24.429
	c23.526-22.282,49.913-33.092,82.651-22.06c37.103,12.502,58.692,52.998,48.037,90.761c-5.093,18.053-16.343,31.725-29.134,44.577
	c-4.424,4.443-8.7,9.036-13.489,14.026c6.808,5.652,12.963,10.764,19.823,16.459c9.142-9.861,18.548-18.933,26.712-29.011
	c27.147-33.516,31.131-70.584,13.64-109.424C355.916,7.686,276.796,1.344,232.627,35.759c-9.76,7.604-18.113,17.031-26.979,25.756
	c-3.334,3.282-6.124,3.63-9.53,0.083c-6.018-6.266-12.054-12.546-18.481-18.381c-30.655-27.827-66.941-35.287-105.3-22.974
	C27.737,34.561,1.557,80.979,7.728,127.598c4.424,33.424,23.438,57.975,47.798,79.285c1.014,0.888,4.158,0.668,5.395-0.258
	C66.284,202.611,71.306,198.146,77.138,193.271z"/>
<path fill-rule="evenodd" clip-rule="evenodd" fill="#FFFFFF" d="M263.699,162.264c-2.577-2.1-4.129-3.196-5.484-4.496
	c-16.679-16.01-33.325-32.051-49.984-48.082c-8.546-8.222-13.763-8.211-22.209-0.002c-31.886,30.984-63.79,61.951-95.662,92.949
	c-13.882,13.501-27.722,27.043-41.543,40.604c-8.21,8.054-9.23,20.016-2.404,27.181c6.292,6.604,14.561,5.472,23.857-3.269
	c1.008-0.948,2.015-1.896,3.012-2.854c37.644-36.111,75.287-72.221,112.924-108.335c9.396-9.015,12.568-9.029,21.697-0.249
	c28.055,26.984,56.124,53.951,84.202,80.91c11.262,10.813,22.516,21.632,33.861,32.355c6.576,6.216,13.204,7.306,19.296,3.476
	c5.635-3.542,8.511-11.476,5.851-18.937c-1.471-4.126-3.986-8.259-7.065-11.364c-13.212-13.328-26.649-26.441-40.331-39.287
	c-6.524-6.127-9.554-13.147-9.373-22.045c0.264-13.039,0.172-26.088,0.008-39.131c-0.183-14.343-2.557-16.492-16.804-16.002
	c-0.396,0.013-0.79,0.015-1.186,0.036c-10.347,0.566-12.395,2.546-12.631,12.882C263.563,146.024,263.699,153.452,263.699,162.264z"
	/>
<path fill-rule="evenodd" clip-rule="evenodd" fill="#FFFFFF" d="M107.637,258.327c0.91,1.194,1.409,2.025,2.071,2.694
	c25.283,25.572,50.493,51.218,75.917,76.65c12.818,12.822,17.627,12.668,30.407-0.081c19.449-19.402,38.827-38.877,58.264-58.292
	c6.688-6.682,13.458-13.28,20.587-20.306c-6.945-5.651-13.331-10.848-21.207-17.257c-1.311,2.044-2.211,4.172-3.723,5.694
	c-20.194,20.331-40.429,40.624-60.759,60.818c-7.082,7.035-9.598,6.994-16.724-0.013c-11.408-11.219-22.714-22.538-33.993-33.886
	c-10.412-10.476-20.731-21.042-31.435-31.916C120.218,248.023,114.024,253.097,107.637,258.327z"/>
<path fill-rule="evenodd" clip-rule="evenodd" fill="#FFFFFF" d="M200.433,244.582c0,9.389,0,18.47,0,27.404
	c8.088,0,15.627,0,23.024,0c0-9.487,0-18.428,0-27.404C215.544,244.582,208.132,244.582,200.433,244.582z"/>
<path fill-rule="evenodd" clip-rule="evenodd" fill="#FFFFFF" d="M194.803,244.816c-8.114,0-15.788,0-23.271,0
	c0,9.496,0,18.448,0,27.282c7.933,0,15.335,0,22.879,0c0.162-1.355,0.373-2.309,0.376-3.264
	C194.814,261.155,194.803,253.477,194.803,244.816z"/>
<path fill-rule="evenodd" clip-rule="evenodd" fill="#FFFFFF" d="M223.153,237.76c1.983-12.026-10.137-29.267-23.191-27.479
	c0,8.109-0.099,16.328,0.128,24.537c0.027,1.005,1.767,2.774,2.764,2.811C209.666,237.879,216.491,237.76,223.153,237.76z"/>
<path fill-rule="evenodd" clip-rule="evenodd" fill="#FFFFFF" d="M171.736,237.296c7.503,0,15.032,0,22.648,0
	c0-9.426,0-18.355,0-27.235C181.809,208.938,169.536,225.14,171.736,237.296z"/>
<path fill-rule="evenodd" clip-rule="evenodd" fill="#ED1C24" d="M77.138,193.271c-5.832,4.875-10.854,9.341-16.217,13.354
	c-1.237,0.926-4.381,1.146-5.395,0.258c-24.36-21.311-43.374-45.861-47.798-79.285C1.557,80.979,27.737,34.561,72.336,20.244
	c38.359-12.313,74.645-4.854,105.3,22.974c6.428,5.834,12.464,12.115,18.481,18.381c3.406,3.547,6.196,3.199,9.53-0.083
	c8.865-8.726,17.219-18.152,26.979-25.756C276.796,1.344,355.916,7.686,384.594,71.363c17.491,38.84,13.508,75.908-13.64,109.424
	c-8.164,10.078-17.57,19.149-26.712,29.011c-6.86-5.695-13.016-10.807-19.823-16.459c4.789-4.99,9.065-9.583,13.489-14.026
	c12.791-12.853,24.041-26.524,29.134-44.577c10.655-37.764-10.935-78.259-48.037-90.761c-32.738-11.032-59.125-0.222-82.651,22.06
	c-8.463,8.014-16.593,16.378-25.021,24.429c-7.935,7.581-13.563,7.432-21.483-0.137c-11.563-11.049-22.509-22.856-34.853-32.955
	C118.424,27.45,65.418,36.884,42.208,76.833c-16.651,28.66-12.87,64.435,9.829,90.379c5.976,6.831,12.607,13.086,18.931,19.612
	C72.863,188.781,74.738,190.761,77.138,193.271z"/>
<path fill-rule="evenodd" clip-rule="evenodd" fill="#414042" d="M263.699,162.264c0-8.812-0.137-16.239,0.032-23.66
	c0.236-10.335,2.284-12.315,12.631-12.882c0.396-0.021,0.79-0.023,1.186-0.036c14.247-0.49,16.621,1.659,16.804,16.002
	c0.164,13.043,0.256,26.093-0.008,39.131c-0.181,8.897,2.849,15.918,9.373,22.045c13.682,12.846,27.119,25.959,40.331,39.287
	c3.079,3.105,5.595,7.238,7.065,11.364c2.66,7.461-0.216,15.395-5.851,18.937c-6.092,3.83-12.72,2.74-19.296-3.476
	c-11.346-10.724-22.6-21.543-33.861-32.355c-28.078-26.959-56.147-53.926-84.202-80.91c-9.129-8.78-12.302-8.766-21.697,0.249
	c-37.637,36.114-75.281,72.224-112.924,108.335c-0.998,0.957-2.004,1.905-3.012,2.854c-9.296,8.74-17.565,9.872-23.857,3.269
	c-6.826-7.165-5.807-19.127,2.404-27.181c13.822-13.562,27.662-27.104,41.543-40.604c31.872-30.998,63.776-61.964,95.662-92.949
	c8.446-8.208,13.663-8.219,22.209,0.002c16.659,16.031,33.306,32.072,49.984,48.082C259.57,159.067,261.122,160.164,263.699,162.264
	z"/>
<path fill-rule="evenodd" clip-rule="evenodd" fill="#ED1C24" d="M107.637,258.327c6.387-5.23,12.581-10.304,19.406-15.893
	c10.704,10.874,21.023,21.44,31.435,31.916c11.279,11.348,22.585,22.667,33.993,33.886c7.126,7.007,9.642,7.048,16.724,0.013
	c20.33-20.194,40.564-40.487,60.759-60.818c1.512-1.522,2.412-3.65,3.723-5.694c7.876,6.409,14.262,11.605,21.207,17.257
	c-7.129,7.025-13.899,13.624-20.587,20.306c-19.437,19.415-38.814,38.89-58.264,58.292c-12.78,12.749-17.589,12.903-30.407,0.081
	c-25.423-25.433-50.633-51.078-75.917-76.65C109.046,260.353,108.547,259.521,107.637,258.327z"/>
<path fill-rule="evenodd" clip-rule="evenodd" fill="#414042" d="M200.433,244.582c7.699,0,15.111,0,23.024,0
	c0,8.977,0,17.917,0,27.404c-7.397,0-14.937,0-23.024,0C200.433,263.052,200.433,253.971,200.433,244.582z"/>
<path fill-rule="evenodd" clip-rule="evenodd" fill="#414042" d="M194.803,244.816c0,8.66,0.012,16.339-0.016,24.019
	c-0.003,0.955-0.214,1.908-0.376,3.264c-7.544,0-14.946,0-22.879,0c0-8.834,0-17.786,0-27.282
	C179.015,244.816,186.688,244.816,194.803,244.816z"/>
<path fill-rule="evenodd" clip-rule="evenodd" fill="#414042" d="M223.153,237.76c-6.662,0-13.487,0.119-20.3-0.131
	c-0.997-0.036-2.736-1.806-2.764-2.811c-0.227-8.209-0.128-16.428-0.128-24.537C213.017,208.493,225.137,225.733,223.153,237.76z"/>
<path fill-rule="evenodd" clip-rule="evenodd" fill="#414042" d="M171.736,237.296c-2.2-12.156,10.072-28.357,22.648-27.235
	c0,8.88,0,17.81,0,27.235C186.769,237.296,179.239,237.296,171.736,237.296z"/>
</svg>
